<?xml version="1.0" encoding="utf-8"?>
<!-- Generator: Adobe Illustrator 21.0.2, SVG Export Plug-In . SVG Version: 6.00 Build 0)  -->
<svg version="1.1" id="Layer_1" xmlns="http://www.w3.org/2000/svg" xmlns:xlink="http://www.w3.org/1999/xlink" x="0px" y="0px"
	 viewBox="0 0 143.4 51.2" style="enable-background:new 0 0 143.4 51.2;" xml:space="preserve">
<style type="text/css">
	.st0{fill:#7F9182;}
</style>
<path class="st0" d="M93.6,35.5c-2.6-2.3-4.4-3.9-8-4c2-2.6,7-9.5,10.1-13.3c10.4-3.2,15.4-8,10.4-8c-3.1,0-6.9,2.5-11.4,7.4
	c-8.5,1.9-15.4,2.1-20.8,1.8c1.1-1.3,1.7-2,1.7-2.3l-0.2-0.7l-0.7,0.1c-0.1,0.3-1.1,1.5-2.2,2.8c-3.3-0.3-6-0.7-8.1-1
	c-0.6,0-1.3,0.6-1.3,0.9c0,0.5,3.5,1.1,8.5,1.2c-1.1,1.3-2.1,2.4-2.3,2.7c-0.9,1-1.7,2.2-2.5,3.3c-2,1.7-8,6.3-8,4.7
	c0-0.5,4-5.2,4-5.8c0-0.3-0.4-0.6-0.7-0.6c-0.6,0-2.3,1-5,3c-4.7,3.4-5.9,4.5-2.3-0.1c1.1-1.4,3.1-3.6,1.5-3.6c-1.1,0-3.5,2-5,3.2
	c-3.3,2.6-7.8,6-7.8,3.8c0-0.6,1.7-2.4,1.7-2.7c0-0.5-0.7-0.8-1.4,0c-0.9,0.3-2.1,0.5-3.6,0.7c0.4-0.6,0.9-1.2,1.5-1.8
	c3.9-4,6.7-2.4,3.7,0c-0.4,0.3-0.3,0.6,0,0.6c0.5,0,1.1-0.4,1.9-1.1c4-4-4-3.7-8.5,2c-0.2,0.2-0.3,0.4-0.4,0.5
	c-0.4,0-0.9,0.1-1.4,0.1c0.6-1,1.5-2.7,2.7-5c13.7-9.3,14.5-14.1,12.1-14.1c-5.8,0-10.4,8.5-13.2,13.6c-2.7,1.9-5.7,3.9-8.9,5.8
	c-2.9,0-5.8-0.1-8.9-0.4c-4.4-5.7-8.4-5.1-9.7-4.3c-1.4,0.9-2,4.2,9.1,5.3c0.9,1.4,1.7,2.5,2.3,3.3c-4.6,2.3-8,3.5-9.9,3.5
	c-1.2,0-1.5,1.3-0.4,1.3c2,0,9-3.4,10.7-4.3c1.8,2.3,3.8,3.4,5.8,3.4c3.2,0,6-4.5,7.7-7.3c0.5,0,0.9-0.1,1.4-0.1
	c-1.4,2.6,0.5,3.3,2.8,1.5c0.9-0.7,1.4-1,1.4-1c0,0,0.1,0.1,0.1,0.1c0,0.1-0.2,0.6-0.2,0.9c0,3.5,6.9-1.7,10.5-4.6
	c2.7-2,3-2.1,0.2,1.8c-1.1,1.5-3,3.7-1.6,3.7c0.9,0,2.2-1.2,2.9-1.8c2.5-2,2.2-1.8,6.3-4.6c0.4,0-0.4,1-0.7,1.3
	c-1.6,1.9-3.8,5.2-1.3,5.2c1.1,0,3.6-1.6,7.6-4.8c-2.5,4.2-2.8,7.2,5.4,1.2c-1.3,1.8-1.6,3.4-0.1,3.4c1.9,0,4.5-3.2,3.7-1.5
	c-0.3,0.8-0.1,1.8,1.1,1.8c1.8,0,8.2-4.9,10.3-6.7c0-0.5-0.4-0.4-0.7-0.1c-3.3,2.6-9.3,7.6-9.3,5c0-0.6,1.7-2.4,1.7-2.7
	c0-0.5-0.7-0.8-1.4,0c-0.6,0.6-3.1,2.9-3.9,2.9c-1.5,0,0.8-2.9,1.9-4c3.9-4,6.7-2.4,3.7,0c-0.4,0.3-0.3,0.6,0,0.6c1.1,0,3-2,3-2.7
	c0-0.7-0.5-1.1-1.2-1.1c-2.5,0-4.9,1.4-6.8,3.1c-2.2,1.7-5.9,4.5-6.7,4.5c-1.2,0,0.2-2.9,2-5.3c1.6-2,3.1-3.9,4.7-5.7
	c6.2,0.1,14.1-0.3,20.8-1.7c-2.9,3.2-8.2,10.5-10,12.7c-6.4,1.1-13,9.4-8.9,9.4c3.4,0,7.9-5.8,10.4-8.9c4.4,0.3,5.2,4.1,9.2,5.7
	c3.9,1.6,9-0.4,9-1.7C103.4,34.5,99.5,40.6,93.6,35.5z M105.4,10.9c3.6,0-0.8,3.4-8.6,6C100.3,12.9,103.2,10.9,105.4,10.9z
	 M50.7,11.1c1.3,0,0.5,3.4-9.9,11.1C43.2,17.6,46.7,11.1,50.7,11.1z M13.4,25.2c2,0,3.9,1.3,5.9,3.9C10.6,28,11.2,25.2,13.4,25.2z
	 M23.5,33.1c-0.4-0.5-1-1.4-2-2.7c2.2,0.2,4.3,0.2,6.4,0.2C26.5,31.4,25.1,32.3,23.5,33.1z M24,33.6c1.8-0.9,3.7-2,5.6-3
	c2,0,3.8-0.1,5.3-0.3C31.2,36.6,28.5,39.3,24,33.6z M35.4,29.5c-0.9,0.1-2.3,0.1-4.2,0.2c2.8-1.7,4.9-3,6.3-3.9
	C36.6,27.4,35.9,28.7,35.4,29.5z M39.6,29.9c1.1-0.1,2-0.3,2.9-0.5C39.5,32,38.8,31.5,39.6,29.9z M75,39.9c-2.6,0,3-6.5,8.1-7.7
	C81.4,34.5,77.3,39.9,75,39.9z M116.9,23.3c-0.4-0.5,0-1.1,0.4-1.6c0.5-0.6,1-1,1.5-0.5C119.7,22.1,117.7,24.3,116.9,23.3z
	 M133.2,26.2c-2.1,1.8-8.5,6.7-10.3,6.7c-1.1,0-1.4-1-1.1-1.8c0.4-1-0.5-0.2-1.4,0.5c-3,2.3-4.2,0.5-2.4-2.3
	c-2.4,1.7-5.1,3.5-5.7,3.5c-2.2,0-0.5-2.9,0.8-5c0,0,0,0,0,0c-10.2,8.4-12.4,4.9-10.6,1.1c-2.5,1.8-5.7,4-6.4,4
	c-1,0-1.6-0.7-0.5-2.4c1.2-2,0.7-1.2-2.1,0.6c-8.6,5.7,2.2-8.4,2.2-5.2c0,0.1-0.6,0.8-1.9,2.3c-5.2,5.9,1.1,1.8,4.6-1.9
	c1.4-1.5,2.1-1.1,2.1-0.6c0,0.8-3.7,4.4-3.7,5.4c0,1.1,1.4,0,2.3-0.6c1.9-1.2,3.2-2.2,4.2-3c1.3-1.8,3.5-3.3,6.1-3.3
	c0.5,0.1,0.9,0.1,1,0.3c0.8,0.7-1,2.6-1.7,2.6c-0.8-0.1-0.8-0.5-0.3-0.9c0.6-0.5,1-1.1,0.2-1.1c-2.4,0.1-7.8,6.7-3.9,6.7
	c3.1,0,7.7-4.7,9.5-5.6c0.7-0.9,1.2-1.4,1.6-1.4c2.4,0-2.8,4.3-2.8,6.2c0,1.1,1.4,0.1,2.4-0.5c2.2-1.4,3.6-2.6,4.6-3.3
	c0.2-0.2,0.5-0.4,0.7-0.6c0.6-0.5,0.9-0.7,1.1-0.8c0.2-0.1,0.3-0.2,0.4-0.3c3.7-2.3,7.8-1.9,4.7,1.2c-1.5,1.5-2.6,1.2-1.8,0.5
	c1.2-1,1.9-2.3,0.3-2.4c-4.3,0.1-10.8,11.7-2,3.6c0.7-0.7,1.4-0.5,1.4,0c0,0.2-1.7,2.1-1.7,2.7c0,2.6,6-2.4,9.3-5
	C132.8,25.8,133.2,25.8,133.2,26.2z"/>
</svg>
